<svg xmlns="http://www.w3.org/2000/svg" viewBox="0 0 840 64" width="840" height="64" role="img" aria-label="Constellation of Tools">
  <defs>
    <linearGradient id="gg" x1="0" y1="0" x2="0" y2="1">
      <stop offset="0" stop-color="#f4dfa6"/><stop offset="0.5" stop-color="#e6b75c"/><stop offset="1" stop-color="#d9a844"/>
    </linearGradient>
    <linearGradient id="ug" x1="0" y1="0" x2="1" y2="0">
      <stop offset="0" stop-color="#e6b75c" stop-opacity="0.5"/><stop offset="1" stop-color="#e6b75c" stop-opacity="0"/>
    </linearGradient>
    <path id="sp" d="M0 -6 L1.5 -1.5 L6 0 L1.5 1.5 L0 6 L-1.5 1.5 L-6 0 L-1.5 -1.5 Z"/>
  </defs>
  <g stroke="#7aa2f7" stroke-width="1" opacity="0.4">
    <path d="M12 40 L30 28 L48 32 L66 20 L82 24 L96 12" fill="none"/>
  </g>
  <g>
    <circle cx="12" cy="40" r="1.8" fill="#f5f3ed"><animate attributeName="opacity" values="0.3;1;0.3" dur="3s" repeatCount="indefinite"/></circle>
    <circle cx="30" cy="28" r="2" fill="#7aa2f7"><animate attributeName="opacity" values="0.3;0.9;0.3" dur="2.7s" begin="-1.1s" repeatCount="indefinite"/></circle>
    <circle cx="48" cy="32" r="1.8" fill="#f5f3ed"><animate attributeName="opacity" values="0.3;1;0.3" dur="3.5s" begin="-0.6s" repeatCount="indefinite"/></circle>
    <circle cx="66" cy="20" r="2.6" fill="#e6b75c"><animate attributeName="opacity" values="0.5;1;0.5" dur="2.4s" begin="-1.8s" repeatCount="indefinite"/></circle>
    <circle cx="82" cy="24" r="1.8" fill="#7aa2f7"><animate attributeName="opacity" values="0.3;0.9;0.3" dur="3.3s" begin="-2.4s" repeatCount="indefinite"/></circle>
    <circle cx="96" cy="12" r="2" fill="#f5f3ed"><animate attributeName="opacity" values="0.3;1;0.3" dur="2.8s" begin="-0.3s" repeatCount="indefinite"/></circle>
  </g>
  <text x="112" y="42" font-family="Georgia, 'Palatino Linotype', serif" font-size="26" font-style="italic" fill="url(#gg)" letter-spacing="1">Constellation of Tools</text>
  <rect x="112" y="52" width="716" height="1" fill="url(#ug)"/>
  <g transform="translate(820,52)" fill="#e6b75c">
    <use href="#sp"><animateTransform attributeName="transform" type="scale" values="0.5;1;0.5" dur="3.4s" begin="-1.2s" repeatCount="indefinite"/></use>
  </g>
</svg>
